<svg xmlns="http://www.w3.org/2000/svg" viewBox="0 0 1500 1500" width="1500" height="1500"><g transform="translate(363.0 971.0) rotate(0.0 75.5 118.0) scale(0.5875486381322957 0.59)"><svg width="257" height="400" viewBox="0 0 257 400"><linearGradient id="a" gradientUnits="userSpaceOnUse" x1="0" x2="214.364" y1="206.663" y2="206.663"><stop offset="0" stop-color="#23286b"/><stop offset="1" stop-color="#151a4f"/></linearGradient><path d="m86.752 95.285-14.857-1.457L77 41.911c1.06-10.773 5.609-25.414 13.384-33.846C95.76 2.237 103.025-.592 110.835.104c10.968.976 22.285 8.645 29.536 20.017 10.426 16.35 10.61 36.765 10.757 53.168l.185 20.726-14.928.134-.185-20.726c-.13-14.5-.292-32.542-8.419-45.286-4.67-7.326-12.013-12.619-18.27-13.175-3.218-.271-5.892.763-8.151 3.213-5.163 5.598-8.69 16.912-9.505 25.195z" fill="#23286b"/><path d="M157.911 348.607c10.642 1.481 24.494 2.657 34.917.049 8.767 11.008 21.984 18.37 35.965 20.03 6.101.724 12.324.411 18.351 1.615-.573 3.284-4.602 4.547-7.931 4.767-8.375.554-16.722-.26-25.049.784-3.973.499-4.624 1.999-8.618 1.722-1.964-.136-7.274-1.969-9.162-2.525-14.074-4.16-29.663-14.712-38.473-26.442zm-99.344 4.306c.288-1.543.592-3.19 1.684-4.321 1.567-1.626 4.135-1.598 6.389-1.457l32.078 2.009c-7.813 3.249-12.511 12.96-14.297 21.225-1.787 8.268-4.7 12.525-7.364 23.328-.166.678-1.537 3.362-2.195 3.601-.904.33-1.62-2.821-2.572-2.972-9.75-1.553-19.888 2.372-29.495.098a124.902 124.902 0 0 0 15.772-41.511z" fill="#151a4f"/><path d="M113.222 61.861C50.692 61.861 0 112.51 0 174.987v176.479h214.364V162.92c.003-55.814-45.282-101.059-101.142-101.059z" fill="url(#a)"/><path d="M164.275 94.888c16.884 37.306 7.656 80.983 22.989 118.952 6.425 15.913 16.754 31.568 24.857 45.239 7.73 13.04 21.054 38.312 28.786 51.352 9.065 15.291 10.091 18.244 14.529 35.454 2.512 9.744-1.143 23.081-9.148 29.183-4.647 3.543-9.646 1.937-15.481 2.316-6.72.437-14.623-.247-21.342.19 8.498-3.077 13.665-11.89 14.118-20.912.928-18.506-8.502-35.766-17.644-51.885-6.333-11.168-12.667-22.333-19.001-33.5-4.589-8.091-9.192-16.2-14.651-23.733-4.866-6.712-8.213-15.787-12.121-23.096-6.363-11.894-10.848-22.812-11.674-36.273-2.651-43.274-5.124-86.329-29.022-111.648h32.711s9.708 13.09 12.094 18.361z" fill="#1d72d8"/><path d="M205.662 378.521c-4.218 0-8.319-1.255-11.676-2.487a87.034 87.034 0 0 1-35.07-23.972 1.065 1.065 0 1 1 1.599-1.41 84.88 84.88 0 0 0 34.208 23.381c4.381 1.611 10.085 3.267 15.372 1.773 10.968-3.092 14.523-17.801 12.298-30.074-2.889-15.964-11.181-30.232-19.197-44.033l-42.941-73.913c-12.136-20.893-13.972-45.742-15.747-69.771-.185-2.529-.373-5.048-.571-7.558-2.005-25.459-6.506-54.024-24.699-72.88a1.064 1.064 0 1 1 1.535-1.476c18.66 19.337 23.255 48.354 25.29 74.19.198 2.512.384 5.035.571 7.566 1.757 23.79 3.574 48.393 15.466 68.859l42.941 73.913c7.73 13.307 16.494 28.391 19.453 44.723 2.391 13.194-1.64 29.073-13.816 32.505-1.669.468-3.351.664-5.016.664zm36.571-.624a1.065 1.065 0 0 1-.288-2.091c10.968-3.092 14.523-17.801 12.298-30.074-2.889-15.964-11.181-30.232-19.197-44.033l-42.941-73.913c-12.136-20.893-13.972-45.742-15.747-69.771-.185-2.529-.373-5.048-.571-7.558-2.005-25.459-6.508-54.026-24.699-72.88a1.064 1.064 0 1 1 1.535-1.476c18.66 19.335 23.255 48.352 25.29 74.19.198 2.512.384 5.035.571 7.566 1.757 23.79 3.574 48.393 15.466 68.859l42.941 73.913c7.73 13.307 16.494 28.391 19.453 44.723 2.391 13.194-1.64 29.073-13.816 32.505-.101.027-.199.04-.295.04z" fill="#e94a47"/><path d="m78.465 76.527 30.478-.038c-5.946 7.319-5.895 17.62-6.097 27.042a247.964 247.964 0 0 1-5.811 48.273c-2.625 11.845-6.125 23.507-8.076 35.482-4.241 26.019-1.062 52.654-2.778 78.959-2.866 43.909-19.349 87.271-13.311 130.859-10.669 3.938-22.774 3.857-33.389-.226-6.888-19.414-3.604-41.05.188-61.297s8.134-39.275 10.695-59.714c2.761-22.041-1.241-48.738 1.169-72.643 3.244-32.184 16.19-62.94 17.197-95.27.258-8.278-.307-16.701 1.778-24.717.649-2.489.501-5.512 2.862-6.533 1.186-.514 3.799-.177 5.095-.177z" fill="#428dfc"/><g fill="#e94a47"><path d="M74.597 398.583c-.439 0-1.024-.153-1.614-.769a1.062 1.062 0 0 1-.275-.522c-5.741-27.952-.066-56.545 5.421-84.199 3.936-19.838 8.008-40.349 7.89-60.581-.03-4.929-.309-9.951-.577-14.805-.286-5.114-.58-10.407-.584-15.632-.019-20.824 4.545-41.529 8.959-61.552 4.039-18.321 8.215-37.263 8.843-56.194.047-1.426.072-2.853.096-4.279.145-8.282.296-16.848 5.035-24.108a1.066 1.066 0 1 1 1.787 1.164c-4.404 6.746-4.543 14.632-4.69 22.981-.026 1.436-.051 2.877-.098 4.311-.636 19.126-4.832 38.167-8.892 56.581-4.389 19.912-8.929 40.5-8.907 61.094.004 5.165.298 10.428.582 15.512.271 4.882.552 9.927.582 14.911.117 20.447-3.975 41.065-7.93 61.007-5.406 27.24-10.995 55.403-5.549 82.741 1.041-.861 2.597-6.605 3.858-11.261 3.186-11.764 7.549-27.875 16.566-34.123a1.066 1.066 0 0 1 1.216 1.751c-8.377 5.804-12.62 21.478-15.721 32.925-2.333 8.619-3.455 12.452-5.537 12.985a1.773 1.773 0 0 1-.461.062zm-36.05-.441c-.494 0-.941-.347-1.043-.85-5.741-27.952-.066-56.545 5.421-84.199 3.936-19.838 8.008-40.349 7.89-60.581-.03-4.933-.309-9.955-.577-14.811-.286-5.114-.58-10.403-.584-15.623-.019-20.826 4.545-41.531 8.959-61.557 4.039-18.321 8.215-37.261 8.843-56.191.036-1.117.064-2.244.092-3.375.215-8.9.439-18.103 5.346-25.621.324-.49.988-.629 1.476-.311.492.322.634.982.311 1.475-4.577 7.01-4.794 15.906-5.003 24.508-.028 1.138-.055 2.269-.092 3.394-.636 19.126-4.835 38.165-8.892 56.581-4.391 19.91-8.929 40.5-8.909 61.094.004 5.163.298 10.422.582 15.506.271 4.884.552 9.932.582 14.918.117 20.447-3.975 41.065-7.93 61.007-5.446 27.445-11.079 55.823-5.425 83.355a1.067 1.067 0 0 1-1.047 1.281z"/></g></svg></g><g transform="translate(174.0 405.0) rotate(0.0 562.5 342.0) scale(5.257009345794392 5.2615384615384615)"><svg width="214" height="130" viewBox="0 0 214 130"><linearGradient id="c" gradientTransform="matrix(1 0 0 -1 0 138)" gradientUnits="userSpaceOnUse" x1="15.277" x2="115.231" y1="87.906" y2="87.906"><stop offset="0" stop-color="#0039B2"/><stop offset="1" stop-color="#6482BA"/></linearGradient><linearGradient id="b"><stop offset="0" stop-color="#69b0f5"/><stop offset="1" stop-color="#5babf2"/></linearGradient><linearGradient xmlns:xlink="http://www.w3.org/1999/xlink" id="d" gradientTransform="matrix(1 0 0 -1 0 138)" gradientUnits="userSpaceOnUse" x1="45.553" x2="55.935" xlink:href="#b" y1="60.555" y2="60.555"/><linearGradient xmlns:xlink="http://www.w3.org/1999/xlink" id="e" gradientTransform="matrix(1 0 0 -1 0 138)" gradientUnits="userSpaceOnUse" x1="72.259" x2="82.64" xlink:href="#b" y1="53.239" y2="53.239"/><linearGradient xmlns:xlink="http://www.w3.org/1999/xlink" id="f" gradientTransform="matrix(1 0 0 -1 0 138)" gradientUnits="userSpaceOnUse" x1="81.203" x2="91.584" xlink:href="#b" y1="109.793" y2="109.793"/><linearGradient xmlns:xlink="http://www.w3.org/1999/xlink" id="g" gradientTransform="matrix(-1 0 0 1 305 -128)" gradientUnits="userSpaceOnUse" x1="239.699" x2="250.081" xlink:href="#b" y1="219.018" y2="219.018"/><linearGradient xmlns:xlink="http://www.w3.org/1999/xlink" id="h" gradientTransform="matrix(-1 0 0 1 305 -128)" gradientUnits="userSpaceOnUse" x1="265.846" x2="276.228" xlink:href="#b" y1="154.188" y2="154.188"/><linearGradient xmlns:xlink="http://www.w3.org/1999/xlink" id="i" gradientTransform="matrix(-1 0 0 1 305 -128)" gradientUnits="userSpaceOnUse" x1="265.846" x2="276.228" xlink:href="#b" y1="178.327" y2="178.327"/><linearGradient xmlns:xlink="http://www.w3.org/1999/xlink" id="j" gradientTransform="matrix(1 0 0 -1 0 138)" gradientUnits="userSpaceOnUse" x1="113.108" x2="139.091" xlink:href="#b" y1="57.928" y2="57.928"/><linearGradient xmlns:xlink="http://www.w3.org/1999/xlink" id="k" gradientTransform="matrix(1 0 0 -1 0 138)" gradientUnits="userSpaceOnUse" x1="155.768" x2="181.751" xlink:href="#b" y1="95.859" y2="95.859"/><ellipse cx="121.145" cy="80.065" fill="#1D72D8" rx="40.941" ry="41.036"/><path d="M105.913 0 63.691 4.351 15.277 9.34l.134 1.304.674 6.569.943 9.195.673 6.569.943 9.195.674 6.569.943 9.195.673 6.569.944 9.196 2.717 26.486 90.636-9.339z" fill="url(#c)"/><path d="M63.691 4.351 15.277 9.34l.134 1.304h48.28zm0 12.862H16.085l.943 9.195h46.663zm0 15.764h-45.99l.943 9.195h45.047zm0 15.764H19.318l.943 9.195h43.43zm0 15.764H20.934l.944 9.196h41.813z" fill="#1D72D8"/><g fill="#5babf2"><path d="M177.911 38.527h-.593l.593.228zm-55.734 71.381h4.49l-4.49-1.726zm12.042-84.141h7.569v7.587h-7.569zm19.61 7.587v-3.86l-7.569-2.91v6.77zm10.038 0-5.566-2.14v2.14zm-34.121 5.173h-3.758l-2.904 7.587h6.662zm4.473 0h7.569v7.587h-7.569zm12.041 0h7.569v7.587h-7.569zm12.041 0h7.569v7.587h-7.569z"/><path d="M170.342 46.114h7.569v-7.359l-.593-.228h-6.976zm19.61 0v-2.729l-7.568-2.911v5.64zm7.095 0-2.622-1.009v1.009zm-74.87 5.172h7.569v7.587h-7.569zm12.042 0h7.569v7.587h-7.569zm12.041 0h7.569v7.587h-7.569zm12.041 0h7.569v7.587h-7.569zm12.041 0h7.569v7.587h-7.569zm12.042 0h7.569v7.587h-7.569zm12.041 0h7.569v7.587h-7.569zm16.074 0h-4.032v7.587h2.381l2.743-7.167zm-88.322 12.759h7.569v7.587h-7.569zm12.042 0h7.569v7.587h-7.569zm12.041 0h7.569v7.587h-7.569zm12.041 0h7.569v7.587h-7.569zm12.041 0h7.569v7.587h-7.569zm12.042 0h7.569v7.587h-7.569zm12.041 0h7.569v7.587h-7.569zm-72.248 12.759h7.569v7.587h-7.569zm12.042 0h7.569v7.587h-7.569zm12.041 0h7.569v7.587h-7.569zm12.041 0h7.569v7.587h-7.569zm12.041 0h7.569v7.587h-7.569zm12.042 0h7.569v7.587h-7.569zm12.041 7.586h4.656l2.904-7.586h-7.56zm-84.289 5.173h7.569v7.587h-7.569zm12.041 0h7.569v7.587h-7.569zm12.042 0h7.569v7.587h-7.569zm12.041 0h7.569v7.587h-7.569zm12.041 0h7.569v7.587h-7.569zm12.041 0h7.569v7.587h-7.569zm12.042 0h7.569v7.587h-7.569zm12.041 6.993 2.677-6.993h-2.677zm-84.289 5.766v1.229l7.568 2.911v-4.14zm19.61 0h-7.569v5.86l4.49 1.726h3.079zm4.473 0h7.569v7.587h-7.569zm12.041 0h7.569v7.587h-7.569zm12.041 0h7.569v7.587h-7.569zm12.041 0h7.569v7.587h-7.569zm12.042 0v7.586h6.93l.638-1.667v-5.919zm-36.124 12.759v2.362l7.569 2.91v-5.272zm19.609 0h-7.568v6.992l1.547.594h6.021zm4.473 0h7.569v7.587h-7.569zm12.042 7.586h2.047l2.904-7.586h-4.951z"/></g><path d="M55.935 87.85c-5.733 0-10.381-4.659-10.381-10.406s4.648-10.406 10.381-10.406z" fill="url(#d)"/><path d="M55.935 90.671c-7.276 0-13.195-5.934-13.195-13.227s5.919-13.226 13.195-13.226v5.641c-4.173 0-7.568 3.404-7.568 7.585 0 4.183 3.396 7.587 7.568 7.587z" fill="#ff4945"/><path d="M82.64 95.166c-5.733 0-10.381-4.659-10.381-10.406s4.648-10.406 10.381-10.406z" fill="url(#e)"/><path d="M82.64 97.986c-7.276 0-13.196-5.933-13.196-13.226s5.92-13.227 13.196-13.227v5.641c-4.173 0-7.569 3.404-7.569 7.587s3.396 7.585 7.569 7.585z" fill="#ff4945"/><path d="M91.584 38.613c-5.733 0-10.381-4.659-10.381-10.406s4.648-10.406 10.381-10.406z" fill="url(#f)"/><path d="M91.585 41.433c-7.276 0-13.196-5.933-13.196-13.226s5.92-13.227 13.196-13.227v5.641c-4.173 0-7.569 3.404-7.569 7.587s3.396 7.585 7.569 7.585z" fill="#ff4945"/><path d="M54.919 101.424c5.733 0 10.381-4.659 10.381-10.406s-4.648-10.406-10.381-10.406z" fill="url(#g)"/><path d="M54.919 104.244v-5.641c4.173 0 7.568-3.404 7.568-7.587s-3.396-7.585-7.568-7.585V77.79c7.276 0 13.195 5.933 13.195 13.226.001 7.294-5.918 13.228-13.195 13.228z" fill="#ff4945"/><path d="M28.772 36.594c5.733 0 10.381-4.659 10.381-10.406s-4.648-10.406-10.381-10.406z" fill="url(#h)"/><path d="M28.772 39.414v-5.641c4.173 0 7.569-3.404 7.569-7.587s-3.396-7.585-7.569-7.585V12.96c7.276 0 13.196 5.933 13.196 13.226s-5.919 13.228-13.196 13.228z" fill="#ff4945"/><path d="M28.772 60.733c5.733 0 10.381-4.659 10.381-10.406s-4.648-10.406-10.381-10.406z" fill="url(#i)"/><path d="M28.772 63.553v-5.641c4.173 0 7.569-3.404 7.569-7.585 0-4.183-3.396-7.587-7.569-7.587V37.1c7.276 0 13.196 5.934 13.196 13.227s-5.919 13.226-13.196 13.226zm57.79 4.448h5.627v35.471h-5.627zm54.609-49.47h5.627v35.471h-5.627zM95.508 10.25h5.627v41.496h-5.627zm64.382 84.608h-14.632V75.42h5.628v13.798h9.004zM96.822 68.001h5.627v16.158h-5.627z" fill="#ff4945"/><path d="M90.969 73.853h7.004v5.641h-7.004zm44.05-57.933h26.355v5.641h-26.355zm-27.012 89.664c-5.711 0-10.357-4.657-10.357-10.381s4.646-10.381 10.357-10.381c5.71 0 10.356 4.657 10.356 10.381s-4.646 10.381-10.356 10.381zm0-15.12c-2.608 0-4.729 2.126-4.729 4.74s2.122 4.74 4.729 4.74 4.728-2.126 4.728-4.74-2.121-4.74-4.728-4.74z" fill="#ff4945"/><ellipse cx="126.099" cy="80.072" fill="url(#j)" rx="12.991" ry="13.022"/><path d="M126.099 95.914c-8.715 0-15.805-7.106-15.805-15.841s7.091-15.841 15.805-15.841 15.804 7.106 15.804 15.841-7.089 15.841-15.804 15.841zm0-26.042c-5.612 0-10.178 4.577-10.178 10.2s4.566 10.2 10.178 10.2c5.611 0 10.177-4.577 10.177-10.2s-4.566-10.2-10.177-10.2z" fill="#ff4945"/><ellipse cx="168.76" cy="42.141" fill="url(#k)" rx="12.991" ry="13.022"/><path d="M168.76 57.981c-8.715 0-15.805-7.106-15.805-15.841s7.09-15.84 15.805-15.84 15.804 7.106 15.804 15.841-7.089 15.84-15.804 15.84zm0-26.042c-5.612 0-10.178 4.577-10.178 10.2s4.566 10.2 10.178 10.2c5.611 0 10.177-4.577 10.177-10.2s-4.566-10.2-10.177-10.2zM46.168 53.176 64.502 10.05l18.334 43.125H46.168z" fill="#ff4945"/><path d="M56.932 41.285H72.07v15.173H56.932z" fill="#fff"/><path d="m98.981 24.476 18.266-17.074 6.1 6.557-18.265 17.074z" fill="#5babf2"/><path d="m110.457 29.069 17.034 18.308-6.542 6.115-17.034-18.308z" fill="#ff4945"/><path d="M209.265 19.076 214 22.124l-35.784 55.863-4.736-3.048zM72.816 101.568l5.242 6.37 8.206-.718-4.423 6.965 3.217 7.601-7.977-2.064-6.218 5.415-.505-8.241-7.06-4.254 7.663-3.029zM193.415 4.002l7.929 6.623-6.608 7.947-7.928-6.623zM6.607 32.62l7.929 6.623-6.608 7.947L0 40.567zm132.695 89.33 2.599 5.445-5.433 2.605-2.599-5.446z" fill="#6792D5"/></svg></g><g transform="translate(1414.0 330.0) rotate(0.0 -180.5 400.5) scale(-1.6044444444444443 1.602)"><svg width="225" height="500" viewBox="0 0 225 500"><linearGradient id="l"><stop offset="0" stop-color="#ffbeb6"/><stop offset="1" stop-color="#f2a19c"/></linearGradient><linearGradient xmlns:xlink="http://www.w3.org/1999/xlink" id="n" gradientUnits="userSpaceOnUse" x1="128.873" x2="143.236" xlink:href="#l" y1="49.297" y2="49.297"/><linearGradient id="m"><stop offset="0" stop-color="#428dfc"/><stop offset="1" stop-color="#1d72d8"/></linearGradient><linearGradient xmlns:xlink="http://www.w3.org/1999/xlink" id="o" gradientUnits="userSpaceOnUse" x1="98.648" x2="169.893" xlink:href="#m" y1="113.227" y2="113.227"/><linearGradient id="p" gradientUnits="userSpaceOnUse" x1="130.858" x2="225" y1="175.047" y2="175.047"><stop offset="0" stop-color="#23286b"/><stop offset="1" stop-color="#151a4f"/></linearGradient><linearGradient xmlns:xlink="http://www.w3.org/1999/xlink" id="q" gradientUnits="userSpaceOnUse" x1="9.443" x2="82.319" xlink:href="#l" y1="119.328" y2="119.328"/><linearGradient xmlns:xlink="http://www.w3.org/1999/xlink" id="r" gradientUnits="userSpaceOnUse" x1="199.246" x2="148.319" xlink:href="#m" y1="128.557" y2="107.037"/><path d="M104.649 211.202c.356 15.452-2.437 7.878-1.377 14.587 4.236 26.825 3.77 54.271 4.117 81.164.326 25.295-8.154 38.806-1.283 75.656 6.012 32.244 18.427 64.811 15.966 97.118 6.556-1.559 13.528-1.726 20.341-.487.317-33.6.632-67.201.948-100.802.175-18.659.347-37.39-2.104-56.066-5.037-38.365-20.912-75.079-36.608-111.17z" fill="#81aef2"/><path d="M148.011 262.721a256.398 256.398 0 0 0-37.168-7.684A20337.694 20337.694 0 0 0 134.06 477l13.709-1.684c2.136-28.193 4.271-56.388 6.405-84.582 1.008-13.311 2.017-26.684.986-39.993-2.288-29.564-14.542-59.301-7.149-88.02z" fill="#a1c3fc"/><g fill="#fff"><path d="M109.01 312.986v83.434c.326 1.424.658 2.848.995 4.272v-87.706zm6.628 0v110.997c.337 1.436.67 2.872.995 4.308V312.986zm6.628-.001h.995v166.513h-.995zm6.628 0h.995v166.513h-.995zm6.628 0h.995v166.513h-.995zm6.628 0h.995v166.513h-.995zm7.621.001h-.664c.218 1.19.44 2.381.664 3.571z"/><path d="M149.107 312.986h-.33v149.023l.995-13.127V316.556a694.178 694.178 0 0 1-.665-3.57z"/></g><path d="M143.748 500c-.527-8.52-1.027-17.391-1.553-25.91-8.589.349-20.05-.523-20.05-.523s-11.307 2.861-16.828 4.617c-14.369 4.57-27.748 9.656-34.371 18.598-.192.223-1.553 2.947-1.584 3.219h74.386z" fill="#1d72d8"/><path d="M121.467 500h54.131c-2.44-7.112-22.303-23.649-27.559-26.378l-14.616-.087S122.912 484.584 121.467 500z" fill="#428dfc"/><path d="M143.806 51.899c-1.113-1.59-3.432-3.028-8.144-3.028s-6.775.856-8.217 2.952c-1.178 1.715 3.682 4.674 8.395 4.674s9.158-2.893 7.966-4.598z" fill="#151a4f"/><path d="m143.27 60.378-14.292.852c1.486-7.785.912-14.721-.071-23.084l14.22-.782c-.682 7.148-1.608 14.729.143 23.014z" fill="url(#n)"/><path d="M103.594 66.912c3.149-4.545 8.745-6.135 14.142-7.353 6.213-1.401 12.891-2.534 19.319-2.583 7.123-.055 13.876 2.516 19.842 4.75 6.849 2.566 11.582 7.887 12.427 15.145s.74 25.781-.248 33.022c-2.987 21.881-1.55 37.626-2.485 59.587-15.444-1.129-64.951-1.516-65.071-2.166-5.179-28.036-1.96-60.039-1.009-88.532.137-4.135.725-8.468 3.083-11.87z" fill="url(#o)"/><path d="M101.987 153.764c-5.883 1.789 1.523 115.23 3.742 169.492 14.584 1.494 31.271.916 45.775.916 5.776-56.548 10.411-113.485 15.032-168.903-21.593-1.609-64.549-1.505-64.549-1.505z" fill="#d62929"/><path d="m225 179.388-34.875 41.281-59.267-49.964 34.873-41.28z" fill="url(#p)"/><path d="M59.39 147.224c5.724-15.388 14.012-26.508 18.512-24.838s3.509 15.499-2.215 30.886-14.012 26.508-18.512 24.838-3.508-15.498 2.215-30.886zm134.489 25.458c-9.936-8.278-16.066-17.293-13.692-20.136s14.099-3.05 24.035 5.228 12.827 21.223 11.364 25.441c-1.212 3.499-11.772-2.256-21.707-10.533z" fill="#1d72d8"/><path d="M116.308 24.796c-.173 1.77-.039 3.565.316 5.309 1.071 5.279 4.3 10.176 8.977 12.856 4.678 2.679 10.771 2.932 15.452.259 1.095-.625 2.111-1.4 2.951-2.34 3.138-3.507 3.408-8.745 2.606-13.381-1.368-7.908-6.095-15.884-13.759-18.285-1.801-.564-3.774-.794-5.563-.198-1.576.525-2.879 1.639-4.057 2.809-3.551 3.522-6.435 7.994-6.923 12.971z" fill="#ffbeb6"/><path d="M120.481 10.488c-1.124 3.547-3.255 7.03-6.658 8.545-1.456.648-3.142.894-4.657.4-3.785-1.235-4.781-6.352-3.517-10.123 1.232-3.679 4-6.819 7.497-8.507 1.033-.498 2.164-.88 3.307-.79 2.153.168 3.899 2.033 4.48 4.111s.199 4.308-.452 6.364zm20.745 5.086a.498.498 0 0 1-.383-.18c-2.458-2.965-5.615-5.221-9.13-6.523a20.878 20.878 0 0 0-9.549-1.161.496.496 0 1 1-.113-.986 21.89 21.89 0 0 1 10.007 1.216c3.678 1.363 6.98 3.72 9.549 6.821a.497.497 0 0 1-.381.813z" fill="#e94a47"/><path d="M137.643 16.65a.497.497 0 0 1-.42-.232c-1.282-2.027-3.35-3.733-5.983-4.936-2.56-1.168-5.333-1.743-7.709-2.15-.621-.106-.998-.064-1.146.128a.497.497 0 0 1-.785-.612c.588-.755 1.687-.567 2.098-.496 2.44.417 5.292 1.008 7.957 2.226 2.808 1.282 5.025 3.118 6.409 5.308a.496.496 0 0 1-.155.685.474.474 0 0 1-.266.079zm-4.061 3.43a.496.496 0 0 1-.403-.206c-2.134-2.952-5.813-6.78-11.22-8.249a.497.497 0 1 1 .26-.959c4.503 1.222 8.572 4.206 11.766 8.627a.498.498 0 0 1-.403.787zm-4.534 2.157a.497.497 0 0 1-.477-.358c-.805-2.759-3.242-4.866-5.2-6.56-.785-.68-1.677-1.45-2.696-1.762a.495.495 0 1 1 .291-.948c1.221.374 2.194 1.217 3.054 1.962 2.057 1.78 4.618 3.993 5.504 7.033a.496.496 0 0 1-.476.633zm-5.89 2.422a24.141 24.141 0 0 0-4.142-8.985l.798-.593c2.057 2.764 3.549 6 4.313 9.357zm-2.754 10.357a.497.497 0 0 1-.497-.496v-2.767c0-4.456 0-9.494-2.214-13.679-.217-.04-.421-.219-.452-.432-.036-.237.153-.501.381-.579.324-.109.655.007.806.28 2.474 4.458 2.474 9.744 2.474 14.409v2.767a.5.5 0 0 1-.498.497z" fill="#e94a47"/><path d="M144.428 25.977c-4.012 0-7.276-3.26-7.276-7.269 0-4.008 3.264-7.268 7.276-7.268s7.276 3.26 7.276 7.268c0 4.009-3.264 7.269-7.276 7.269zm0-12.55c-2.916 0-5.286 2.369-5.286 5.281s2.372 5.282 5.286 5.282c2.915 0 5.286-2.369 5.286-5.282s-2.37-5.281-5.286-5.281zm-15.812 22.288c-4.012 0-7.277-3.26-7.277-7.269 0-4.008 3.264-7.268 7.277-7.268 4.012 0 7.276 3.26 7.276 7.268s-3.264 7.269-7.276 7.269zm0-12.551c-2.916 0-5.287 2.369-5.287 5.282s2.373 5.282 5.287 5.282c2.915 0 5.286-2.369 5.286-5.282s-2.371-5.282-5.286-5.282z" fill="#23286b"/><path d="M133.225 25.654a6.843 6.843 0 0 1 .545-2.793c.53-1.239 1.387-2.144 2.41-2.55 1.304-.521 2.781-.121 3.593.968l-1.594 1.187c-.307-.411-.87-.468-1.263-.31-.52.206-1.001.748-1.317 1.488a4.848 4.848 0 0 0-.384 1.979z" fill="#23286b"/><path d="M115.729 6.807c.575-.32 1.262-.351 1.922-.372 6.468-.219 13.542-.248 18.61 3.773-4.973-1.863-10.687.881-14.071 4.971-5.612 6.784-5.979 16.963-1.033 24.246-7.227-8.114-10.044-19.678-6.997-30.105.284-.973.683-2.02 1.569-2.513z" fill="#e94a47"/><path d="M112.66 18.428a.494.494 0 0 1-.406-.211c-.536-.764-.61-1.809-.222-3.198 1.207-4.323 4.374-8 8.475-9.836a.498.498 0 0 1 .407.906c-3.834 1.718-6.796 5.155-7.924 9.197-.143.508-.212.95-.209 1.325l.615-1.197c1.782-3.465 3.814-6.951 7.34-8.183a.496.496 0 1 1 .328.938c-3.178 1.113-5.094 4.413-6.783 7.699l-1.177 2.29a.496.496 0 0 1-.408.269l-.036.001z" fill="#fff"/><path d="M143.769 51.784c-3.902 3.799-3.981 3.907-6.755 5.185 3.085 3.304 4.003 7.639 7.58 10.404.679-4.091 6.072-8.13 6.072-8.13s-4.836-4.192-6.897-7.459z" fill="#23286b"/><path d="M121.126 58.909s8.507 6.829 9.273 8.919c3.609-4.032 3.888-6.23 6.686-10.861-4.693-1.601-6.393-2.114-9.67-5.114-2.703 3.978-6.289 7.056-6.289 7.056z" fill="#23286b"/><path d="M90.287 141.673c-.378-8.377-5.688-11.449-11.333-17.655-4.525-4.975-21.571-23.93-24.435-27.404-4.11-4.987-6.844-11.432-12.44-14.67-6.52-3.774-11.733-1.676-18.701-4.563-4.408-1.826 3.118 6.643 7.887 6.792 1.659.052 3.371-.234 4.95.277.366.119.71.283 1.04.471-1.921.362-4.174.986-5.473 1.574-8.961 4.053-19.613 3.883-29.099 6.487-1.532.42-3.384 1.936-2.416 3.194.906 1.176 2.719.068 4.2-.049.859-.067 14.553-2.978 20.331-3.36-1.051.493-2.114.957-3.227 1.287-2.607.774-5.366.803-8.08.983a71.53 71.53 0 0 0-6.625.752c-2.198.355-8.587 1.533-5.443 2.878 4.266 1.826 16.878.083 24.886-3.192l-10.684 11.049c-.721.744-2 2.24-1.077 2.712 1.655.846 4.032-2.523 5.665-4.291A61.289 61.289 0 0 1 38.06 91.619c.711-.24 1.419-.534 2.128-.887.042-.006.081-.016.123-.019 1.179-.084 2.128.91 2.861 1.837 4.127 5.219 18.712 34.706 27.232 51.606 10.439 17.876 26.526 16.575 30.322 17.379 1.615-4.792-10.211-14.81-10.439-19.862z" fill="url(#q)"/><path d="M183.639 147.002c-9.157 14.721-14.516 22.882-23.674 37.603a39.53 39.53 0 0 1-18.243-4.63c.547 2.407 3.07 5.095 5.283 6.192 3.978 1.973 7.89 2.651 11.869 4.624a36.27 36.27 0 0 0-.665 17.165c2.151 2.077 3.722-3.834 3.839-6.43.583 1.121 1.018 1.891 1.743 2.511 2.127.886 3.82 1.621 5.146.734 1.715 2.816 3.08 3.284 5.047 2.629-.623-6.222-1.377-11.724-2-17.946-.225-2.243-.437-4.586.387-6.684.978-2.491 3.237-4.21 5.359-5.843a186.207 186.207 0 0 0 29.485-28.386 37.285 37.285 0 0 0-21.579-1.722c-.307 1.655-1.108-1.246-1.997.183z" fill="#ffbeb6"/><path d="M163.318 65.643c7.382 6.958 10.733 17.033 15.698 25.877 3.247 5.783 4.511 11.79 8.49 17.098l18.329 24.443c2.37 3.161 4.77 6.374 6.191 10.058.864 2.239 1.347 4.604 1.825 6.956 2.305 11.315 4.726 21.995 1.762 33.157-1.692-10.823-7.717-19.812-16.311-26.616-5.211-4.127-12.065-7.124-18.452-5.272l5.994-12.548c-8.849-4.138-11.603-13.656-16.81-21.915-6.181-9.802-6.455-14.59-7.507-20.892-1.488-8.937-.961-31.997.791-30.346z" fill="url(#r)"/><path d="M99.425 76.793c-6.818 19.89-6.469 42.931-8.144 60.41-2.791-4.099-10.592-12.811-12.661-14.392.488 4.012.644 4.827.183 8.308a123.696 123.696 0 0 1-10.443 35.86c-2.19 4.711-5.25 9.747-10.306 10.959-5.056 1.211 10.848 1.688 21.822-1.774 14.453-4.56 17.619-8.175 22.838-15.127 1.375-1.831 4.359-23.413 4.971-45.187.248-8.855 1.55-17.369 1.657-25.821.248-19.863 1.752-29.177-1.197-27.237-1.353.89-2.191 1.46-3.769 3.267-2.533 2.905-3.702 7.09-4.951 10.734z" fill="#428dfc"/><path d="M101.474 76.14c.069-.04.084-.094.046-.163-.04-.069-.094-.084-.163-.046s-.084.094-.046.163c.038.07.108.031.163.046zm6.246-10.232c.055.015.124-.023.139-.078.015-.055-.023-.124-.078-.139-.055-.015-.124.023-.139.078-.087.093.008.177.078.139zm-3.491 4.955c.055.015.109.029.179-.009.015-.055.03-.109-.009-.179-.055-.015-.109-.029-.179.009-.084.095-.045.164.009.179zm9.793 12.098c.094.084.218.061.303-.034.084-.094.061-.218-.034-.303-.094-.084-.218-.061-.303.034-.14.078-.075.272.034.303zm-4.424-3.103c.094.084.218.061.303-.034.084-.094.061-.218-.034-.303s-.218-.061-.303.034c-.084.094-.059.218.034.303zm-4.407-3.157c.094.084.218.061.303-.034.084-.094.061-.218-.034-.303-.094-.084-.218-.061-.303.034-.084.095-.059.218.034.303zm-1.054 12.258a.362.362 0 0 0 .091-.326.36.36 0 0 0-.327-.09c-.084.094-.115.202-.075.273.062.191.171.223.311.143zm-2.904-4.558a.362.362 0 0 0 .091-.326.364.364 0 0 0-.327-.091c-.084.094-.115.202-.075.273.078.138.242.184.311.144zm14.873-12.123c.109.029.248-.049.278-.157.03-.109-.049-.248-.157-.278-.109-.029-.248.049-.278.157-.031.109.049.247.157.278zm-5.293-1.232c.109.029.248-.049.278-.157.03-.109-.049-.248-.157-.278-.109-.029-.248.049-.278.157-.031.108.048.248.157.278zm-5.24-1.218c.109.029.248-.049.278-.157.03-.109-.049-.248-.157-.278-.109-.029-.248.049-.278.157-.045.163.049.248.157.278zm-5.994 21.799c.069-.04.17-.188.075-.273-.04-.069-.188-.17-.273-.075-.069.04-.17.188-.075.273.026.123.134.153.273.075zm13.116-15.309c.109.029.233.006.264-.104.03-.109-.009-.179-.104-.263-.109-.029-.234-.006-.264.104-.029.108-.005.232.104.263zm-4.573-1.502c.109.029.233.006.264-.104s-.009-.179-.104-.263c-.109-.029-.233-.006-.264.104-.029.109-.005.233.104.263zm-4.558-1.556c.109.029.233.006.264-.104.03-.109-.009-.179-.104-.263-.109-.029-.233-.006-.264.104-.044.162-.004.233.104.263zm1.894 10.729c.094.084.218.061.303-.034.084-.094.061-.218-.034-.303-.094-.084-.218-.061-.303.034-.084.094-.076.272.034.303zm-3.654-3.124c.094.084.218.061.287.021.084-.094.061-.218-.034-.303-.094-.084-.218-.061-.303.034-.068.039-.043.163.05.248zm9.767-14.242c.124-.023.193-.064.17-.188-.023-.124-.118-.208-.188-.17-.124.023-.209.118-.185.242a.571.571 0 0 0 .203.116zm-4.784.317c.124-.023.209-.118.185-.242-.023-.124-.118-.208-.242-.185s-.209.118-.17.188c.01.178.102.262.227.239-.054-.016 0 0 0 0zm-2.928 27.455c.094.084.218.061.303-.034s.061-.218-.034-.303c-.094-.084-.218-.061-.303.034-.083.094-.059.218.034.303zm-4.231-3.577c.094.084.218.061.303-.034.084-.094.061-.218-.034-.303-.094-.084-.218-.061-.303.034-.07.04-.061.219.034.303zm11.637-18.65c.124-.023.209-.118.185-.242-.023-.124-.118-.208-.242-.185s-.209.118-.185.242c-.031.109.118.209.242.185zm-5.584.446c.124-.023.209-.118.185-.242-.023-.124-.118-.208-.242-.185s-.209.118-.185.242c.038.071.117.21.242.185zm1.476 10.965c.109.029.248-.049.278-.157.03-.109-.049-.248-.157-.278-.109-.029-.248.049-.278.157a.24.24 0 0 0 .157.278zm-5.282-1.697c.109.029.248-.049.278-.157.03-.109-.049-.248-.157-.278-.109-.029-.248.049-.278.157-.031.108-.007.232.157.278zm5.046 5.503c.109.029.248-.049.278-.157.03-.109-.049-.248-.157-.278-.109-.029-.234-.006-.278.157-.03.109.049.248.157.278zm-5.221-1.916c.109.029.248-.049.278-.157.03-.109.006-.233-.157-.278-.109-.029-.248.049-.333.142.024.124.104.264.212.293zm4.254-9.612a.308.308 0 0 0 .239-.228.31.31 0 0 0-.228-.239.308.308 0 0 0-.239.228c-.03.109.12.209.228.239z" fill="#fff"/></svg></g><g transform="translate(141.0 684.0) rotate(0.0 145.0 256.0) scale(2.215160866509823 2.2131640032332944)"><svg width="130.916" height="231.343" viewBox="4.652 0 130.916 231.343"><linearGradient id="s"><stop offset="0" stop-color="#008eff"/><stop offset="1" stop-color="#0073dc"/></linearGradient><linearGradient xmlns:xlink="http://www.w3.org/1999/xlink" id="w" gradientUnits="userSpaceOnUse" x1="55.971" x2="98.366" xlink:href="#s" y1="222.06" y2="222.06"/><linearGradient xmlns:xlink="http://www.w3.org/1999/xlink" id="x" gradientTransform="matrix(.9159 .4015 -.4015 .9159 162.4421 542.618)" gradientUnits="userSpaceOnUse" x1="-276.765" x2="-234.372" xlink:href="#s" y1="-245.742" y2="-245.742"/><linearGradient id="t"><stop offset="0" stop-color="#1b236d"/><stop offset="1" stop-color="#0a134f"/></linearGradient><linearGradient xmlns:xlink="http://www.w3.org/1999/xlink" id="y" gradientUnits="userSpaceOnUse" x1="67.894" x2="23.044" xlink:href="#t" y1="122.026" y2="182.793"/><linearGradient id="u"><stop offset="0" stop-color="#ffbfb7"/><stop offset="1" stop-color="#ffa29d"/></linearGradient><linearGradient xmlns:xlink="http://www.w3.org/1999/xlink" id="z" gradientUnits="userSpaceOnUse" x1="89.606" x2="118.91" xlink:href="#u" y1="18.232" y2="18.232"/><linearGradient id="v"><stop offset="0" stop-color="#92c4fe"/><stop offset="1" stop-color="#5babf2"/></linearGradient><linearGradient xmlns:xlink="http://www.w3.org/1999/xlink" id="A" gradientUnits="userSpaceOnUse" x1="40.562" x2="106.207" xlink:href="#v" y1="86.227" y2="86.227"/><linearGradient xmlns:xlink="http://www.w3.org/1999/xlink" id="B" gradientUnits="userSpaceOnUse" x1="83.864" x2="107.343" xlink:href="#t" y1="15.664" y2="15.664"/><linearGradient xmlns:xlink="http://www.w3.org/1999/xlink" id="C" gradientUnits="userSpaceOnUse" x1="60.542" x2="90.104" xlink:href="#t" y1="28.563" y2="28.563"/><linearGradient xmlns:xlink="http://www.w3.org/1999/xlink" id="D" gradientTransform="matrix(.9732 -.2301 .2301 .9732 -83.5739 80.1415)" gradientUnits="userSpaceOnUse" x1="191.71" x2="211.117" xlink:href="#t" y1="-26.698" y2="-26.698"/><linearGradient xmlns:xlink="http://www.w3.org/1999/xlink" id="E" gradientUnits="userSpaceOnUse" x1="88.585" x2="135.568" xlink:href="#u" y1="107.655" y2="107.655"/><linearGradient xmlns:xlink="http://www.w3.org/1999/xlink" id="F" gradientTransform="matrix(.7304 .683 -.683 .7304 -61.9306 81.4627)" gradientUnits="userSpaceOnUse" x1="101.701" x2="105.683" xlink:href="#v" y1="-89.534" y2="-141.405"/><path d="M96.991 27.566a48.583 48.583 0 0 0 14.785 2.914c-5.325 5.807-5.789 10.69-8.596 18.068-1.328-2.066-8.562-2.284-10.999-2.587a78.149 78.149 0 0 0 4.81-18.395z" fill="#ffa29d"/><path d="M56.618 213.17c-.885 5.327-.816 12.234-.075 17.581.075.542 31.129-.261 41.143.2 3.364-.695-6.577-9.623-11.846-11.866-2.438-1.038-7.979-2.529-10.579-3.041-2.217-.437-1.508.079-3.736-.305l-2.908-.501-11.999-2.068z" fill="url(#w)"/><path d="M11.781 198.538c-2.948 4.524-5.66 10.876-7.128 16.072-.148.527 28.615 12.259 37.601 16.703 3.36.713-2.161-11.454-6.085-15.624-1.816-1.93-6.293-5.519-8.468-7.033-1.856-1.291-1.413-.533-3.299-1.779l-2.462-1.627-10.159-6.712z" fill="url(#x)"/><path d="M55.919 200.993c.013-4.806 3.975-8.852 4.311-13.647.325-4.631-2.782-8.868-3.062-13.502-.249-4.137 1.758-8.021 3.287-11.874a54.87 54.87 0 0 0 3.783-23.009c-.396-7.615-2.375-15.057-3.231-22.634s-.468-15.661 3.471-22.191a294.306 294.306 0 0 0 23.01 3.296l-9.914 116.631a31.054 31.054 0 0 1-.293 2.439c-.116.698-9.21.129-9.916.077-4.577-.333-6.578-.364-11.155-.697-.945-5.013-.305-9.788-.291-14.889z" fill="#0a134f"/><path d="M58.053 100.736c-9.497 16.288-9.398 31.205-20.319 46.574-3.833 5.394-8.804 10.302-10.453 16.71-1.103 4.285-.645 9.042-2.822 12.894-2.112 3.739-6.391 5.991-8.095 9.933-1.992 4.605-3.29 6.123-5.689 13.848 6.732 4.317 13.461 7.439 19.427 9.996 3.18-9.783 4.683-12.632 9.751-21.584 5.148-9.095 9.012-12.359 14.419-21.372 8.596-14.325 25.874-44.425 31.928-59.994-6.574-3.111-22.334-5.802-27.035-11.349-.769 2.282.091 1.767-1.112 4.344z" fill="url(#y)"/><path d="M90.389 11.968c1.567-4.818 6.01-8.575 11.022-9.319 1.031-.153 2.093-.187 3.105.061 1.236.301 2.335 1.003 3.352 1.766 1.377 1.032 2.696 2.253 3.354 3.844.566 1.368.594 2.888.779 4.357s2.518 2.039 3.98 2.275c3.996.645 3.468 6.55 1.016 13.393-1.865 5.206-9.234 6.076-14.72 5.383-2.1-.265-4.205-.772-6.029-1.847-4.469-2.635-6.413-8.183-6.621-13.368-.086-2.205.08-4.445.762-6.545z" fill="url(#z)"/><path d="M91.856 38.352c1.566-1.983 4.338-2.685 6.848-2.399s5.39 3.127 7.087 4.433c.072 8.89.168 15.859.24 24.749 2.09-6.111-15.013 40.586-19.78 71.427-3.451-1.565-7.252-2.134-10.952-2.956a79.693 79.693 0 0 1-34.737-17.476 621.309 621.309 0 0 1 33.94-49.279c5.969-7.831 12.22-15.686 15.644-24.918.464-1.245.887-2.537 1.71-3.581z" fill="url(#A)"/><path d="M93.244 29.463c-5.338-1.501-9.313-7.374-9.38-12.918-.037-3.028 2.595-11.541 8.002-13.858 2.232-.957 14.633-1.595 15.477 1.132-2.824.316-5.019 2.547-6.776 4.78-4.544 5.778-8.013 13.545-7.323 20.864z" fill="url(#B)"/><path d="M116.249 21.194c-2.141 2.45-5.659 3.607-8.836 2.906 2.183 1.619 4.957 4.629 7.362 3.363 1.907-1.004 1.303-4.121 1.474-6.269z" fill="#fff"/><path d="M90.104 10.152C87.171 7.118 82.251 6.939 78.26 8.31c-7.596 2.608-12.892 9.799-15.314 17.455-2.422 7.658-2.411 15.84-2.403 23.87a72.015 72.015 0 0 1 24.301-2.501c-.963-6.372-1.93-12.807-1.479-19.236.45-6.429 2.442-12.943 6.739-17.746z" fill="url(#C)"/><path d="M83.728 22.611a.5.5 0 0 1-.121-.014c-2.068-.5-2.575-2.983-2.777-4.807a72.431 72.431 0 0 0-2.155-11.207.516.516 0 0 1 .995-.274 73.48 73.48 0 0 1 2.184 11.367c.209 1.893.646 3.068 1.355 3.612.012-1.643.146-2.899.275-4.117.154-1.445.299-2.811.267-4.807-.02-1.177.919-5.133 2.137-5.532.366-.12.732.02.982.372.463.656.395 2.591.112 7.181a164.43 164.43 0 0 0-.22 4.141c.11-.156.203-.361.259-.587.359-1.456.626-2.976.886-4.447.555-3.147 1.128-6.402 2.625-9.312.352-.683.854-1.545 1.633-2.16a.516.516 0 0 1 .638.81c-.623.492-1.052 1.232-1.355 1.823-1.425 2.771-1.984 5.947-2.526 9.019-.262 1.488-.534 3.026-.9 4.515-.139.563-.489 1.264-1.053 1.544a1.09 1.09 0 0 1-.947.026.515.515 0 0 1-.311-.483c.031-1.511.139-3.261.242-4.951.145-2.362.34-5.537.126-6.379-.525.669-1.317 3.272-1.299 4.404.033 2.06-.122 3.521-.272 4.934-.154 1.445-.299 2.811-.267 4.807a.514.514 0 0 1-.513.522z" fill="#ff4945"/><path d="M115.54 5.307c.094.089.192.188.21.315.019.131-.052.256-.121.369a30.954 30.954 0 0 1-12.982 11.78c-1.877-3.473-6.904-11.056-6.855-12.332.032-.824.529-4.218 3.189-4.978 5.411-1.546 12.474.976 16.559 4.846z" fill="url(#D)"/><path d="M133.253 127.716c-2.884-2.152-4.216-4.86-8.675-7.6a81.427 81.427 0 0 0-8.515-14.035c-4.442-5.883-9.885-11.594-11.015-18.878-.468-3.024-.144-6.136-.71-9.141-.275-1.461-1.095-3.154-2.581-3.209-.784-.028-1.495.434-2.13.896a42.448 42.448 0 0 0-9.825 10.002c-.693.991-1.373 2.135-1.187 3.33.109.707.511 1.329.908 1.925 6.097 9.138 9.686 14.075 17.912 21.355.927.819 9.295 10.327 9.913 12.194.019 2.347.08 3.746-.13 5.85-.157 1.581-.678 3.477.391 4.858 1.023 1.321 2.22 1.306 3.657 1.11 1.115 1.697 3.787 3.395 5.877 2.024.416 1.113 1.371 2.547 3.306 1.902 1.655-1.912-.949-5.426-1.668-7.413-.801-2.214-1.377-4.479-2.591-6.788 2.495 1.073 4.129 3.632 6.801 4.513 4.128 1.362 2.597-1.152.262-2.895z" fill="url(#E)"/><path d="M87.935 50.436c.593-1.761 2.327-9.949 9.172-14 3.909-2.314 8.629 1.969 10.575 6.073 2.594 5.476-3.144 34.682-2.388 41.766-5.264 1.722-13.309 10.146-18.699 8.094-1.3-10.419.223-16.57-.674-26.64-.37-4.137.69-11.355 2.014-15.293z" fill="url(#F)"/></svg></g></svg>